<svg width="48" height="32" viewBox="0 0 48 32" fill="none" xmlns="http://www.w3.org/2000/svg">
<path fill-rule="evenodd" clip-rule="evenodd" d="M40.662 0.000732422H35.8377V27.8649H0V32H40.6623V27.8649H40.662V0.000732422Z" fill="white"/>
<path d="M17.7471 25.1699H11.7169V0H17.5842V9.59514H17.8286C18.3447 8.47108 19.1664 7.60195 20.2937 6.98777C21.421 6.362 22.7995 6.04911 24.4293 6.04911C25.9641 6.04911 27.3087 6.33303 28.4631 6.90086C29.6176 7.46868 30.5072 8.28566 31.1319 9.35179C31.7703 10.4179 32.0894 11.681 32.0894 13.1412V25.1699H26.0591V14.0451C26.0591 12.8746 25.706 11.965 24.9998 11.316C24.3071 10.6555 23.3292 10.3252 22.0661 10.3252C21.2241 10.3252 20.4771 10.4817 19.8251 10.7945C19.1732 11.0958 18.6639 11.542 18.2972 12.133C17.9305 12.724 17.7471 13.4309 17.7471 14.2537V25.1699Z" fill="white"/>
<path d="M0.2854 6.29239H6.31568V25.1698H0.2854V6.29239Z" fill="white"/>
<path d="M6.67712 5.09165L0.36162 0.000732422H6.67712V5.09165Z" fill="#FFA500"/>
</svg>
