<svg width="433" height="76" viewBox="0 0 433 76" fill="none" xmlns="http://www.w3.org/2000/svg">
<path d="M22.27 0H0.690002C0.308926 0 0 0.308926 0 0.690002V16.87C0 17.2511 0.308926 17.56 0.690002 17.56H22.27C22.651 17.56 22.96 17.2511 22.96 16.87V0.690002C22.96 0.308926 22.651 0 22.27 0Z" fill="#0E2E78"/>
<path d="M55.55 22.75H45.7C36.28 22.75 28.6 30.16 28.16 39.47C28.14 39.93 28.49 40.31 28.95 40.31H32.59C32.97 40.31 33.28 40.62 33.28 41.01V74.69C33.28 75.07 33.59 75.38 33.97 75.38H55.54C55.92 75.38 56.23 75.07 56.23 74.69V23.44C56.23 23.06 55.92 22.75 55.54 22.75H55.55Z" fill="url(#paint0_linear_3_3)"/>
<path d="M5.40997 22.75H0.709961C0.329961 22.75 0.0199585 23.06 0.0199585 23.44V74.69C0.0199585 75.07 0.329961 75.38 0.709961 75.38H22.28C22.66 75.38 22.97 75.08 22.97 74.7V40.31C22.97 30.61 15.1 22.75 5.40997 22.75Z" fill="#0E2E78"/>
<path d="M81.55 30.84V24.03C81.55 23.23 81.95 22.83 82.75 22.83H87.62C88.42 22.83 88.82 23.23 88.82 24.03V30.84C88.82 31.69 88.42 32.11 87.62 32.11H82.75C81.95 32.11 81.55 31.69 81.55 30.84ZM81.55 74.11V38.47C81.55 37.62 81.95 37.2 82.75 37.2H87.54C88.39 37.2 88.81 37.62 88.81 38.47V74.11C88.81 74.61 88.72 74.95 88.55 75.12C88.38 75.29 88.06 75.38 87.61 75.38H82.82C81.97 75.38 81.55 74.96 81.55 74.11Z" fill="#0E2E78"/>
<path d="M104.6 75.39H99.88C99.03 75.39 98.61 74.97 98.61 74.12V38.48C98.61 37.63 99.03 37.21 99.88 37.21H104.6C105.45 37.21 105.87 37.63 105.87 38.48V41.18H106.17C107.37 38.53 109.89 37.21 113.73 37.21H117.02C120.66 37.21 123.46 38.21 125.41 40.2C127.36 42.2 128.33 45.07 128.33 48.81V74.12C128.33 74.97 127.88 75.39 126.98 75.39H122.26C121.41 75.39 120.99 74.97 120.99 74.12V49.11C120.99 45.42 119.17 43.57 115.52 43.57H112C107.91 43.57 105.86 45.69 105.86 49.93V74.11C105.86 74.96 105.44 75.38 104.59 75.38L104.6 75.39Z" fill="#0E2E78"/>
<path d="M143.31 75.39H138.59C137.74 75.39 137.32 74.97 137.32 74.12V24.03C137.32 23.18 137.74 22.76 138.59 22.76H143.31C144.16 22.76 144.58 23.19 144.58 24.03V41.17H144.88C146.08 38.52 148.6 37.2 152.44 37.2H155.73C159.37 37.2 162.17 38.2 164.12 40.19C166.07 42.19 167.04 45.06 167.04 48.8V74.11C167.04 74.96 166.59 75.38 165.69 75.38H160.97C160.12 75.38 159.7 74.96 159.7 74.11V49.1C159.7 45.41 157.88 43.56 154.23 43.56H150.71C146.62 43.56 144.57 45.68 144.57 49.92V74.1C144.57 74.95 144.15 75.37 143.3 75.37L143.31 75.39Z" fill="#0E2E78"/>
<path d="M193.48 75.39H186.89C183.2 75.39 180.34 74.37 178.32 72.32C176.3 70.27 175.29 67.43 175.29 63.78V48.81C175.29 45.12 176.3 42.26 178.32 40.24C180.34 38.22 183.2 37.21 186.89 37.21H193.48C197.12 37.21 199.98 38.22 202.05 40.24C204.12 42.26 205.16 45.12 205.16 48.81V63.78C205.16 67.42 204.12 70.27 202.05 72.32C199.98 74.37 197.12 75.39 193.48 75.39ZM187.94 69.02H192.51C196.1 69.02 197.9 67.2 197.9 63.55V49.03C197.9 45.39 196.1 43.56 192.51 43.56H187.94C186.04 43.56 184.67 44 183.82 44.87C182.97 45.74 182.55 47.13 182.55 49.03V63.55C182.55 65.45 182.97 66.83 183.82 67.71C184.67 68.58 186.04 69.02 187.94 69.02Z" fill="#0E2E78"/>
<path d="M227.92 75.39H224.55C220.96 75.39 218.2 74.38 216.28 72.36C214.36 70.34 213.4 67.48 213.4 63.79V38.48C213.4 37.63 213.82 37.21 214.67 37.21H219.39C220.24 37.21 220.66 37.63 220.66 38.48V63.49C220.66 67.18 222.46 69.03 226.05 69.03H229.64C233.73 69.03 235.78 66.91 235.78 62.67V38.49C235.78 37.64 236.2 37.22 237.05 37.22H241.77C242.67 37.22 243.12 37.64 243.12 38.49V74.13C243.12 74.98 242.67 75.4 241.77 75.4H237.05C236.2 75.4 235.78 74.98 235.78 74.13V71.43H235.48C234.28 74.08 231.76 75.4 227.92 75.4V75.39Z" fill="#0E2E78"/>
<path d="M266.1 75.39H252.32C251.47 75.39 251.05 74.97 251.05 74.12V70.45C251.05 69.65 251.47 69.25 252.32 69.25H264.9C268.14 69.25 269.77 68.13 269.77 65.88V64.98C269.77 62.98 268.6 61.46 266.25 60.41L258.09 56.52C255.54 55.32 253.7 54 252.55 52.55C251.4 51.1 250.83 49.21 250.83 46.86C250.83 40.42 254.4 37.2 261.54 37.2H273.97C274.77 37.2 275.17 37.62 275.17 38.47V42.14C275.17 42.99 274.77 43.41 273.97 43.41H263.04C261.54 43.41 260.39 43.67 259.6 44.2C258.8 44.72 258.4 45.41 258.4 46.26V47.08C258.4 48.68 259.67 50.08 262.22 51.27L270.46 55.46C273.05 56.61 274.84 57.97 275.81 59.54C276.78 61.11 277.27 63.15 277.27 65.64C277.27 72.13 273.55 75.37 266.11 75.37L266.1 75.39Z" fill="#0E2E78"/>
<path d="M312.07 75.39H295.9C292.21 75.39 289.35 74.37 287.33 72.32C285.31 70.27 284.3 67.43 284.3 63.78V48.81C284.3 45.12 285.31 42.26 287.33 40.24C289.35 38.22 292.21 37.21 295.9 37.21H302.04C305.73 37.21 308.6 38.22 310.65 40.24C312.7 42.26 313.72 45.12 313.72 48.81V58.32C313.72 59.22 313.27 59.67 312.37 59.67H292.3C291.75 59.67 291.48 59.92 291.48 60.42V63.64C291.48 67.28 293.3 69.11 296.95 69.11H312.07C312.97 69.11 313.42 69.56 313.42 70.46V74.2C313.42 75 312.97 75.4 312.07 75.4V75.39ZM292.3 54.57H305.7C306.2 54.57 306.45 54.32 306.45 53.82V49.03C306.45 47.13 306.03 45.75 305.18 44.87C304.33 44 302.96 43.56 301.06 43.56H296.94C295.04 43.56 293.67 44 292.82 44.87C291.97 45.74 291.55 47.13 291.55 49.03V53.82C291.55 54.32 291.8 54.57 292.3 54.57Z" fill="#0E2E78"/>
<path d="M335.2 75.39H322.17C321.62 75.39 321.35 75.12 321.35 74.57V72.85C321.35 72.35 321.62 72.1 322.17 72.1H334.82C339.31 72.1 341.56 70.35 341.56 66.86V65.06C341.56 61.82 340.16 59.7 337.37 58.7L328.01 55.11C325.46 54.11 323.65 52.94 322.58 51.59C321.51 50.24 320.97 48.37 320.97 45.97C320.97 40.13 324.19 37.21 330.63 37.21H342.76C343.31 37.21 343.58 37.48 343.58 38.03V39.75C343.58 40.25 343.31 40.5 342.76 40.5H331C328.95 40.5 327.42 40.95 326.4 41.85C325.38 42.75 324.86 43.8 324.86 44.99V46.71C324.86 48.11 325.25 49.21 326.02 50C326.79 50.8 327.98 51.47 329.58 52.02L338.94 55.76C341.53 56.61 343.27 57.87 344.14 59.54C345.01 61.21 345.45 63.55 345.45 66.54C345.45 69.53 344.61 71.76 342.94 73.2C341.27 74.65 338.68 75.37 335.19 75.37L335.2 75.39Z" fill="#0E2E78"/>
<path d="M371.29 75.39H364.85C361.61 75.39 359.05 74.44 357.18 72.55C355.31 70.65 354.37 68.06 354.37 64.76V47.84C354.37 44.55 355.31 41.95 357.18 40.05C359.05 38.15 361.61 37.21 364.85 37.21H371.29C374.53 37.21 377.1 38.16 379 40.05C380.9 41.95 381.84 44.54 381.84 47.84V64.76C381.84 68.05 380.89 70.65 379 72.55C377.11 74.45 374.53 75.39 371.29 75.39ZM365.15 72.02H370.99C373.29 72.02 375.04 71.38 376.27 70.11C377.49 68.84 378.1 67.03 378.1 64.68V47.91C378.1 45.56 377.49 43.75 376.27 42.48C375.05 41.21 373.29 40.57 370.99 40.57H365.15C362.85 40.57 361.11 41.21 359.91 42.48C358.71 43.75 358.11 45.56 358.11 47.91V64.68C358.11 67.03 358.71 68.84 359.91 70.11C361.11 71.38 362.86 72.02 365.15 72.02Z" fill="#0E2E78"/>
<path d="M400.12 37.2H406.93C407.53 37.2 407.83 37.47 407.83 38.02V39.74C407.83 40.29 407.53 40.56 406.93 40.56H400.12C399.67 40.56 399.45 40.78 399.45 41.23V74.47C399.45 75.07 399.18 75.37 398.63 75.37H396.46C395.91 75.37 395.64 75.07 395.64 74.47V41.23C395.64 40.78 395.42 40.56 394.97 40.56H390.18C389.63 40.56 389.36 40.29 389.36 39.74V38.02C389.36 37.47 389.63 37.2 390.18 37.2H394.97C395.42 37.2 395.64 36.98 395.64 36.53V33.24C395.64 26.25 398.81 22.76 405.15 22.76H406.95C407.55 22.76 407.85 23.03 407.85 23.58V25.3C407.85 25.85 407.55 26.12 406.95 26.12H405.53C403.28 26.12 401.71 26.72 400.81 27.92C399.91 29.12 399.46 30.94 399.46 33.39V36.53C399.46 36.98 399.68 37.2 400.13 37.2H400.12Z" fill="#0E2E78"/>
<path d="M416.59 40.57H412.02C411.47 40.57 411.2 40.32 411.2 39.82V38.02C411.2 37.47 411.47 37.2 412.02 37.2H416.59C417.04 37.2 417.26 36.98 417.26 36.53V30.47C417.26 29.87 417.53 29.57 418.08 29.57H420.25C420.8 29.57 421.07 29.87 421.07 30.47V36.53C421.07 36.98 421.29 37.2 421.74 37.2H430.65C431.2 37.2 431.47 37.47 431.47 38.02V39.82C431.47 40.32 431.2 40.57 430.65 40.57H421.74C421.29 40.57 421.07 40.79 421.07 41.24V64.82C421.07 67.12 421.72 68.89 423.02 70.14C424.32 71.39 426.14 72.01 428.49 72.01H431.41C431.96 72.01 432.23 72.28 432.23 72.83V74.55C432.23 75.1 431.95 75.37 431.41 75.37H428.19C424.9 75.37 422.25 74.45 420.25 72.6C418.25 70.75 417.26 68.21 417.26 64.96V41.23C417.26 40.78 417.04 40.56 416.59 40.56V40.57Z" fill="#0E2E78"/>
<defs>
<linearGradient id="paint0_linear_3_3" x1="42.2" y1="24.76" x2="42.2" y2="74.51" gradientUnits="userSpaceOnUse">
<stop stop-color="#165AB6"/>
<stop offset="1" stop-color="#8BB9F0"/>
</linearGradient>
</defs>
</svg>
