<svg width="194" height="260" viewBox="0 0 194 260" fill="none" xmlns="http://www.w3.org/2000/svg">
<path d="M76.7982 0H2.40069C1.07483 0 0 1.07475 0 2.40052V58.1646C0 59.4904 1.07483 60.5651 2.40069 60.5651H76.7982C78.1241 60.5651 79.1989 59.4904 79.1989 58.1646V2.40052C79.1989 1.07475 78.1241 0 76.7982 0Z" fill="white"/>
<g clip-path="url(#paint0_diamond_3_20_clip_path)" data-figma-skip-parse="true"><g transform="matrix(0 0.0857825 -0.0857888 0 145.53 171.193)"><rect x="0" y="0" width="1092.53" height="576.649" fill="url(#paint0_diamond_3_20)" opacity="1" shape-rendering="crispEdges"/><rect x="0" y="0" width="1092.53" height="576.649" transform="scale(1 -1)" fill="url(#paint0_diamond_3_20)" opacity="1" shape-rendering="crispEdges"/><rect x="0" y="0" width="1092.53" height="576.649" transform="scale(-1 1)" fill="url(#paint0_diamond_3_20)" opacity="1" shape-rendering="crispEdges"/><rect x="0" y="0" width="1092.53" height="576.649" transform="scale(-1)" fill="url(#paint0_diamond_3_20)" opacity="1" shape-rendering="crispEdges"/></g></g><path d="M191.575 78.4729H157.605C125.124 78.4729 98.6205 104.038 97.108 136.133C97.036 137.694 98.2364 139.038 99.8208 139.038H112.4C113.721 139.038 114.801 140.118 114.801 141.438V257.599C114.801 258.92 115.881 260 117.202 260H191.599C192.92 260 194 258.92 194 257.599V80.8734C194 79.5531 192.92 78.4729 191.599 78.4729H191.575Z" data-figma-gradient-fill="{&#34;type&#34;:&#34;GRADIENT_DIAMOND&#34;,&#34;stops&#34;:[{&#34;color&#34;:{&#34;r&#34;:1.0,&#34;g&#34;:1.0,&#34;b&#34;:1.0,&#34;a&#34;:1.0},&#34;position&#34;:0.0}],&#34;stopsVar&#34;:[{&#34;color&#34;:{&#34;r&#34;:1.0,&#34;g&#34;:1.0,&#34;b&#34;:1.0,&#34;a&#34;:1.0},&#34;position&#34;:0.0}],&#34;transform&#34;:{&#34;m00&#34;:0.0,&#34;m01&#34;:-171.57754516601562,&#34;m02&#34;:231.31878662109375,&#34;m10&#34;:171.564941406250,&#34;m11&#34;:0.0,&#34;m12&#34;:85.410392761230469},&#34;opacity&#34;:1.0,&#34;blendMode&#34;:&#34;NORMAL&#34;,&#34;visible&#34;:true}"/>
<path d="M18.6294 78.4489H2.40069C1.08031 78.4489 0 79.5051 0 80.8254V257.575C0 258.896 1.08031 259.976 2.40069 259.976H76.7982C78.1186 260 79.1989 258.944 79.1989 257.624V139.014C79.1989 105.575 52.071 78.4729 18.6294 78.4489Z" fill="white"/>
<defs>
<clipPath id="paint0_diamond_3_20_clip_path"><path d="M191.575 78.4729H157.605C125.124 78.4729 98.6205 104.038 97.108 136.133C97.036 137.694 98.2364 139.038 99.8208 139.038H112.4C113.721 139.038 114.801 140.118 114.801 141.438V257.599C114.801 258.92 115.881 260 117.202 260H191.599C192.92 260 194 258.92 194 257.599V80.8734C194 79.5531 192.92 78.4729 191.599 78.4729H191.575Z"/></clipPath><linearGradient id="paint0_diamond_3_20" x1="0" y1="0" x2="500" y2="500" gradientUnits="userSpaceOnUse">
<stop stop-color="white"/>
</linearGradient>
</defs>
</svg>
