<svg width="138" height="17" viewBox="0 0 138 17" fill="none" xmlns="http://www.w3.org/2000/svg">
<path d="M137.734 7.56101H135.256V13.0545C135.256 13.4691 135.361 13.7593 135.571 13.9251C135.782 14.091 136.09 14.1808 136.495 14.1946C137.013 14.1946 137.491 14.1739 137.928 14.1324V16.5579C137.499 16.627 136.859 16.6615 136.009 16.6615C134.656 16.6615 133.591 16.3955 132.814 15.8634C132.036 15.3313 131.652 14.5401 131.66 13.4898V7.56101H129.838V5.25997H131.66V2.56506H135.256V5.25997H137.734V7.56101Z" fill="white"/>
<path d="M128.671 7.56098H126.047V16.5164H122.452V7.56098H120.581V5.25994H122.452V4.41001C122.452 3.24913 122.836 2.35773 123.606 1.73583C124.375 1.11393 125.432 0.802979 126.776 0.802979C127.57 0.802979 128.283 0.865169 128.914 0.989549V3.31132C128.404 3.26986 128.04 3.24913 127.821 3.24913C127.23 3.24913 126.784 3.35623 126.485 3.57044C126.193 3.78465 126.047 4.11979 126.047 4.57585V5.25994H128.671V7.56098Z" fill="white"/>
<path d="M112.903 16.7444C111.591 16.7444 110.449 16.5026 109.478 16.0189C108.506 15.5352 107.757 14.8545 107.23 13.977C106.704 13.0925 106.441 12.0733 106.441 10.9193C106.441 9.76531 106.7 8.74954 107.218 7.87197C107.744 6.99439 108.494 6.31721 109.465 5.84042C110.445 5.35672 111.591 5.11487 112.903 5.11487C114.215 5.11487 115.361 5.35672 116.341 5.84042C117.321 6.31721 118.074 6.99439 118.601 7.87197C119.127 8.74954 119.39 9.76531 119.39 10.9193C119.39 12.0733 119.127 13.0925 118.601 13.977C118.074 14.8545 117.321 15.5352 116.341 16.0189C115.361 16.5026 114.215 16.7444 112.903 16.7444ZM112.928 14.3605C113.527 14.3605 114.037 14.2154 114.458 13.9251C114.879 13.628 115.195 13.2203 115.406 12.7021C115.616 12.1838 115.722 11.5896 115.722 10.9193C115.722 10.249 115.616 9.65475 115.406 9.1365C115.195 8.61134 114.879 8.20019 114.458 7.90306C114.037 7.60593 113.527 7.45736 112.928 7.45736C112.32 7.45736 111.802 7.60593 111.373 7.90306C110.951 8.20019 110.632 8.61134 110.413 9.1365C110.194 9.65475 110.085 10.249 110.085 10.9193C110.085 11.5826 110.194 12.1769 110.413 12.7021C110.632 13.2203 110.951 13.628 111.373 13.9251C111.802 14.2154 112.32 14.3605 112.928 14.3605Z" fill="white"/>
<path d="M101.095 8.59752C101.023 8.20365 100.792 7.88924 100.403 7.6543C100.014 7.41245 99.5243 7.29152 98.9331 7.29152C98.5444 7.29152 98.1921 7.34335 97.8762 7.447C97.5685 7.54374 97.3255 7.68194 97.1473 7.8616C96.9692 8.03435 96.8841 8.23129 96.8922 8.45241C96.8679 8.98448 97.4349 9.35762 98.593 9.57183L100.95 9.98643C102.229 10.2145 103.181 10.5772 103.804 11.0748C104.436 11.5723 104.756 12.2253 104.764 13.0338C104.756 13.7662 104.505 14.4123 104.011 14.972C103.525 15.5317 102.841 15.9671 101.958 16.278C101.075 16.589 100.059 16.7444 98.9088 16.7444C97.7345 16.7444 96.7181 16.6028 95.8597 16.3195C95.0012 16.0292 94.325 15.6181 93.831 15.086C93.345 14.547 93.0535 13.9113 92.9563 13.1789H96.5764C96.6574 13.6211 96.9003 13.9562 97.3053 14.1843C97.7102 14.4123 98.2447 14.5263 98.9088 14.5263C99.5648 14.5263 100.091 14.4192 100.488 14.205C100.893 13.9908 101.095 13.704 101.095 13.3447C101.095 13.0545 100.95 12.8195 100.658 12.6399C100.375 12.4533 99.9211 12.3013 99.2975 12.1838L97.1109 11.8107C95.8637 11.6034 94.9162 11.2268 94.2683 10.6809C93.6204 10.135 93.3045 9.44745 93.3207 8.61825C93.3126 7.90652 93.5354 7.28807 93.9889 6.76291C94.4424 6.23084 95.0903 5.82315 95.9326 5.53983C96.7748 5.25652 97.7588 5.11487 98.8845 5.11487C99.9778 5.11487 100.933 5.25652 101.751 5.53983C102.569 5.82315 103.209 6.22738 103.671 6.75254C104.141 7.27079 104.408 7.88579 104.473 8.59752H101.095Z" fill="white"/>
<path d="M85.2545 16.7444C83.9182 16.7444 82.7601 16.5095 81.7802 16.0396C80.8083 15.5697 80.0592 14.8995 79.5328 14.0288C79.0064 13.1512 78.7432 12.1216 78.7432 10.94C78.7432 9.78604 79.0023 8.77027 79.5206 7.8927C80.047 7.00821 80.7921 6.32412 81.7559 5.84042C82.7196 5.35672 83.8372 5.11487 85.1087 5.11487C86.2911 5.11487 87.348 5.32908 88.2793 5.7575C89.2188 6.17901 89.9557 6.81819 90.4903 7.67503C91.0329 8.53187 91.3042 9.57874 91.3042 10.8156V11.6863H82.2904C82.2904 12.246 82.4119 12.7332 82.6548 13.1478C82.9059 13.5624 83.2582 13.8837 83.7117 14.1117C84.1733 14.3328 84.7119 14.4434 85.3274 14.4434C85.9186 14.4434 86.4288 14.3432 86.858 14.1428C87.2872 13.9355 87.595 13.6557 87.7813 13.3032H91.207C91.0369 13.9942 90.6887 14.5989 90.1623 15.1171C89.6358 15.6354 88.9515 16.0362 88.1093 16.3195C87.2751 16.6028 86.3235 16.7444 85.2545 16.7444ZM87.9027 9.7584C87.9027 9.30925 87.7853 8.90847 87.5504 8.55606C87.3237 8.19674 87.0038 7.91688 86.5908 7.71649C86.1777 7.5161 85.708 7.4159 85.1816 7.4159C84.6471 7.4159 84.1612 7.51955 83.7238 7.72686C83.2946 7.93416 82.9504 8.21747 82.6913 8.57679C82.4402 8.93611 82.3066 9.32998 82.2904 9.7584H87.9027Z" fill="white"/>
<path d="M73.3981 8.59752C73.3252 8.20365 73.0944 7.88924 72.7056 7.6543C72.3169 7.41245 71.8269 7.29152 71.2357 7.29152C70.847 7.29152 70.4947 7.34335 70.1788 7.447C69.8711 7.54374 69.6281 7.68194 69.45 7.8616C69.2718 8.03435 69.1868 8.23129 69.1949 8.45241C69.1706 8.98448 69.7375 9.35762 70.8956 9.57183L73.2523 9.98643C74.5319 10.2145 75.4835 10.5772 76.107 11.0748C76.7387 11.5723 77.0586 12.2253 77.0667 13.0338C77.0586 13.7662 76.8076 14.4123 76.3136 14.972C75.8276 15.5317 75.1433 15.9671 74.2606 16.278C73.3778 16.589 72.3614 16.7444 71.2114 16.7444C70.0371 16.7444 69.0207 16.6028 68.1623 16.3195C67.3038 16.0292 66.6276 15.6181 66.1336 15.086C65.6476 14.547 65.3561 13.9113 65.2589 13.1789H68.879C68.96 13.6211 69.203 13.9562 69.6079 14.1843C70.0128 14.4123 70.5473 14.5263 71.2114 14.5263C71.8674 14.5263 72.3938 14.4192 72.7907 14.205C73.1956 13.9908 73.3981 13.704 73.3981 13.3447C73.3981 13.0545 73.2523 12.8195 72.9607 12.6399C72.6773 12.4533 72.2237 12.3013 71.6002 12.1838L69.4135 11.8107C68.1663 11.6034 67.2188 11.2268 66.5709 10.6809C65.923 10.135 65.6072 9.44745 65.6234 8.61825C65.6153 7.90652 65.838 7.28807 66.2915 6.76291C66.745 6.23084 67.3929 5.82315 68.2352 5.53983C69.0774 5.25652 70.0614 5.11487 71.1871 5.11487C72.2804 5.11487 73.2361 5.25652 74.054 5.53983C74.872 5.82315 75.5118 6.22738 75.9734 6.75254C76.4431 7.27079 76.7104 7.88579 76.7752 8.59752H73.3981Z" fill="white"/>
<path d="M73.3981 8.59752C73.3252 8.20365 73.0944 7.88924 72.7056 7.6543C72.3169 7.41245 71.8269 7.29152 71.2357 7.29152C70.847 7.29152 70.4947 7.34335 70.1788 7.447C69.8711 7.54374 69.6281 7.68194 69.45 7.8616C69.2718 8.03435 69.1868 8.23129 69.1949 8.45241C69.1706 8.98448 69.7375 9.35762 70.8956 9.57183L73.2523 9.98643C74.5319 10.2145 75.4835 10.5772 76.107 11.0748C76.7387 11.5723 77.0586 12.2253 77.0667 13.0338C77.0586 13.7662 76.8076 14.4123 76.3136 14.972C75.8276 15.5317 75.1433 15.9671 74.2606 16.278C73.3778 16.589 72.3614 16.7444 71.2114 16.7444C70.0371 16.7444 69.0207 16.6028 68.1623 16.3195C67.3038 16.0292 66.6276 15.6181 66.1336 15.086C65.6476 14.547 65.3561 13.9113 65.2589 13.1789H68.879C68.96 13.6211 69.203 13.9562 69.6079 14.1843C70.0128 14.4123 70.5473 14.5263 71.2114 14.5263C71.8674 14.5263 72.3938 14.4192 72.7907 14.205C73.1956 13.9908 73.3981 13.704 73.3981 13.3447C73.3981 13.0545 73.2523 12.8195 72.9607 12.6399C72.6773 12.4533 72.2237 12.3013 71.6002 12.1838L69.4135 11.8107C68.1663 11.6034 67.2188 11.2268 66.5709 10.6809C65.923 10.135 65.6072 9.44745 65.6234 8.61825C65.6153 7.90652 65.838 7.28807 66.2915 6.76291C66.745 6.23084 67.3929 5.82315 68.2352 5.53983C69.0774 5.25652 70.0614 5.11487 71.1871 5.11487C72.2804 5.11487 73.2361 5.25652 74.054 5.53983C74.872 5.82315 75.5118 6.22738 75.9734 6.75254C76.4431 7.27079 76.7104 7.88579 76.7752 8.59752H73.3981Z" fill="white"/>
<path d="M59.4765 5.25989H63.0723V16.5163H59.6222V14.4848H59.4765C59.1606 15.155 58.6545 15.6871 57.958 16.081C57.2696 16.4679 56.4395 16.6614 55.4676 16.6614C54.5849 16.6614 53.8074 16.4921 53.1352 16.1535C52.4711 15.8149 51.9528 15.3278 51.5803 14.6921C51.2078 14.0494 51.0215 13.2962 51.0215 12.4325V5.25989H54.6173V11.8935C54.6173 12.5569 54.8238 13.0855 55.2368 13.4794C55.658 13.8732 56.2208 14.0702 56.9254 14.0702C57.3789 14.0702 57.8001 13.9803 58.1888 13.8007C58.5775 13.6141 58.8893 13.3446 59.1242 12.9922C59.359 12.6398 59.4765 12.2183 59.4765 11.7277V5.25989Z" fill="white"/>
<path d="M42.2749 16.7444C40.9629 16.7444 39.821 16.5026 38.8492 16.0189C37.8774 15.5352 37.1282 14.8545 36.6018 13.977C36.0754 13.0925 35.8122 12.0733 35.8122 10.9193C35.8122 9.76531 36.0714 8.74954 36.5897 7.87197C37.1161 6.99439 37.8652 6.31721 38.837 5.84042C39.817 5.35672 40.9629 5.11487 42.2749 5.11487C43.5869 5.11487 44.7329 5.35672 45.7128 5.84042C46.6927 6.31721 47.4459 6.99439 47.9723 7.87197C48.4987 8.74954 48.7619 9.76531 48.7619 10.9193C48.7619 12.0733 48.4987 13.0925 47.9723 13.977C47.4459 14.8545 46.6927 15.5352 45.7128 16.0189C44.7329 16.5026 43.5869 16.7444 42.2749 16.7444ZM42.2992 14.3605C42.8985 14.3605 43.4087 14.2154 43.8299 13.9251C44.251 13.628 44.5668 13.2203 44.7774 12.7021C44.988 12.1838 45.0932 11.5896 45.0932 10.9193C45.0932 10.249 44.988 9.65475 44.7774 9.1365C44.5668 8.61134 44.251 8.20019 43.8299 7.90306C43.4087 7.60593 42.8985 7.45736 42.2992 7.45736C41.6918 7.45736 41.1735 7.60593 40.7443 7.90306C40.3231 8.20019 40.0032 8.61134 39.7846 9.1365C39.5659 9.65475 39.4566 10.249 39.4566 10.9193C39.4566 11.5826 39.5659 12.1769 39.7846 12.7021C40.0032 13.2203 40.3231 13.628 40.7443 13.9251C41.1735 14.2154 41.6918 14.3605 42.2992 14.3605Z" fill="white"/>
<path d="M25.0249 16.5164H21.4291V1.50781H24.9277V7.22931H25.0735C25.3812 6.55904 25.8712 6.04078 26.5434 5.67455C27.2156 5.30141 28.0376 5.11484 29.0094 5.11484C29.9246 5.11484 30.7263 5.28414 31.4147 5.62273C32.1031 5.96132 32.6336 6.44848 33.0061 7.0842C33.3867 7.71992 33.577 8.47311 33.577 9.34377V16.5164H29.9812V9.88276C29.9812 9.18484 29.7707 8.64241 29.3496 8.25545C28.9365 7.86157 28.3534 7.66464 27.6002 7.66464C27.0981 7.66464 26.6527 7.75792 26.264 7.9445C25.8752 8.12416 25.5715 8.39019 25.3529 8.7426C25.1342 9.09501 25.0249 9.51652 25.0249 10.0071V16.5164Z" fill="white"/>
<path d="M10.1557 16.5164H6.55988V5.25998H9.9856V7.22933H10.1314C10.4391 6.56597 10.9372 6.04772 11.6256 5.67458C12.314 5.30144 13.136 5.11487 14.0916 5.11487C15.0068 5.11487 15.8085 5.28416 16.4969 5.62275C17.1853 5.96135 17.7158 6.45196 18.0883 7.09459C18.4608 7.73031 18.6431 8.48005 18.635 9.3438V16.5164H15.0635V9.88278C15.0635 9.19178 14.8529 8.64934 14.4318 8.25547C14.0106 7.8616 13.4275 7.66467 12.6825 7.66467C11.9131 7.66467 11.2976 7.87197 10.836 8.28657C10.3824 8.70117 10.1557 9.2747 10.1557 10.0072V16.5164Z" fill="white"/>
<path d="M0.170072 5.25996H3.76587V16.5164H0.170072V5.25996Z" fill="white"/>
<path d="M3.76587 4.54397L0 1.5083L3.76587 1.5083V4.54397Z" fill="#FFA500"/>
</svg>
