<svg width="48" height="48" viewBox="0 0 48 48" fill="none" xmlns="http://www.w3.org/2000/svg">
<g clip-path="url(#clip0_32_904)">
<path d="M4.66224 35.1389C4.86436 35.4982 5.1563 35.7677 5.51562 35.9698L22.8078 45.9409C23.5264 46.3675 24.4023 46.3675 25.0984 45.9409L42.3906 35.9698C43.1093 35.5656 43.536 34.802 43.536 33.9711V14.0289C43.536 13.198 43.1093 12.4345 42.3906 12.0302L25.0984 2.05915C24.3798 1.63246 23.504 1.63246 22.8078 2.05915L5.51562 12.0302C4.77453 12.4345 4.34784 13.198 4.34784 14.0289V33.9935C4.34784 34.3978 4.43767 34.7795 4.66224 35.1389Z" fill="#009639"/>
<path d="M18.406 31.6131C18.406 32.8482 17.4179 33.8364 16.1828 33.8364C14.9476 33.8364 13.9595 32.8482 13.9595 31.6131V16.3645C13.9595 15.1743 15.015 14.2086 16.4747 14.2086C17.5302 14.2086 18.7653 14.6353 19.5064 15.5561L20.1802 16.3645L29.4775 27.4809V16.4094C29.4775 15.1743 30.4656 14.1862 31.7008 14.1862C32.936 14.1862 33.9241 15.1743 33.9241 16.4094V31.658C33.9241 32.8482 32.8686 33.8139 31.4088 33.8139C30.3534 33.8139 29.1182 33.3872 28.3771 32.4665L18.406 20.5641V31.6131Z" fill="white"/>
</g>
<defs>
<clipPath id="clip0_32_904">
<rect width="44.5217" height="44.5217" fill="white" transform="translate(1.73914 1.73914)"/>
</clipPath>
</defs>
</svg>
