<svg width="48" height="48" viewBox="0 0 48 48" fill="none" xmlns="http://www.w3.org/2000/svg">
<g clip-path="url(#clip0_32_899)">
<path d="M23.7863 1.91309C12.5111 1.91309 13.2152 6.80268 13.2152 6.80268L13.2278 11.8683H23.9874V13.3892H8.95412C8.95412 13.3892 1.73914 12.5709 1.73914 23.9477C1.73913 35.3245 8.03654 34.921 8.03654 34.921H11.7949V29.6418C11.7949 29.6418 11.5923 23.3444 17.9917 23.3444H28.6634C28.6634 23.3444 34.6591 23.4413 34.6591 17.5497V7.80826C34.6591 7.80826 35.5694 1.91309 23.7863 1.91309ZM17.8534 5.31946C18.9239 5.31946 19.7892 6.18469 19.7892 7.25519C19.7892 8.3257 18.9239 9.19092 17.8534 9.19092C16.7829 9.19092 15.9177 8.3257 15.9177 7.25519C15.9177 6.18469 16.7829 5.31946 17.8534 5.31946Z" fill="url(#paint0_linear_32_899)"/>
<path d="M24.1065 46.0964C35.3817 46.0964 34.6776 41.2068 34.6776 41.2068L34.665 36.1412H23.9054V34.6203H38.9387C38.9387 34.6203 46.1537 35.4385 46.1537 24.0618C46.1537 12.685 39.8563 13.0884 39.8563 13.0884H36.098V18.3677C36.098 18.3677 36.3006 24.6651 29.9011 24.6651H19.2295C19.2295 24.6651 13.2338 24.5682 13.2338 30.4597V40.2012C13.2338 40.2012 12.3235 46.0964 24.1065 46.0964ZM30.0394 42.69C28.9689 42.69 28.1037 41.8248 28.1037 40.7543C28.1037 39.6838 28.9689 38.8185 30.0394 38.8185C31.1099 38.8185 31.9751 39.6838 31.9751 40.7543C31.9751 41.8248 31.1099 42.69 30.0394 42.69Z" fill="url(#paint1_linear_32_899)"/>
</g>
<defs>
<linearGradient id="paint0_linear_32_899" x1="6.00746" y1="5.88725" x2="28.0177" y2="27.6779" gradientUnits="userSpaceOnUse">
<stop stop-color="#387EB8"/>
<stop offset="1" stop-color="#366994"/>
</linearGradient>
<linearGradient id="paint1_linear_32_899" x1="19.5174" y1="19.8798" x2="43.154" y2="42.2243" gradientUnits="userSpaceOnUse">
<stop stop-color="#FFE052"/>
<stop offset="1" stop-color="#FFC331"/>
</linearGradient>
<clipPath id="clip0_32_899">
<rect width="44.5217" height="44.5217" fill="white" transform="translate(1.73914 1.73914)"/>
</clipPath>
</defs>
</svg>
