<svg width="48" height="48" viewBox="0 0 48 48" fill="none" xmlns="http://www.w3.org/2000/svg">
<g clip-path="url(#clip0_32_928)">
<path fill-rule="evenodd" clip-rule="evenodd" d="M16.2388 0.696233C16.0201 0.69832 15.7931 0.751081 15.5863 0.865725C14.9295 1.22979 14.6886 2.07383 15.0524 2.73013L16.5355 5.40809C12.9624 7.61886 10.5948 11.3949 10.5948 15.7047C10.5948 15.7228 10.5947 15.7499 10.5948 15.7767C10.5948 15.7861 10.5947 15.7915 10.5948 15.8021C10.5948 15.8162 10.5948 15.8368 10.5948 15.8403V16.5055C9.90857 15.716 8.89982 15.2174 7.77276 15.2174C5.70794 15.2174 4.03125 16.8941 4.03125 18.9589V30.4843C4.03125 32.5491 5.70794 34.2258 7.77276 34.2258C8.89982 34.2258 9.90857 33.7272 10.5948 32.9377V34.5521C10.5948 36.7286 12.3758 38.5097 14.5524 38.5097H15.5566V43.6368C15.5566 45.7016 17.2333 47.3783 19.2982 47.3783C21.363 47.3783 23.0397 45.7016 23.0397 43.6368V38.5097H24.777V43.6368C24.777 45.7016 26.4536 47.3783 28.5185 47.3783C30.5833 47.3783 32.26 45.7016 32.26 43.6368V38.5097H33.2642C35.4408 38.5097 37.2218 36.7286 37.2218 34.5521V32.9377C37.9081 33.7272 38.9168 34.2258 40.0439 34.2258C42.1087 34.2258 43.7854 32.5491 43.7854 30.4843V18.9589C43.7854 16.8941 42.1087 15.2174 40.0439 15.2174C38.9168 15.2174 37.9081 15.716 37.2218 16.5055V15.853V15.8403C37.2219 15.8199 37.2219 15.7996 37.2218 15.8021C37.2221 15.7615 37.2218 15.7291 37.2218 15.7047C37.2218 11.3957 34.8489 7.62326 31.2769 5.41233L32.7642 2.73012C33.128 2.07383 32.8871 1.22979 32.2303 0.865721C32.0235 0.751077 31.7965 0.698319 31.5778 0.696229C31.0928 0.691587 30.6167 0.947202 30.3659 1.39962L28.8108 4.20893C27.2903 3.64781 25.6358 3.34029 23.9083 3.34029C22.1826 3.34029 20.5251 3.64466 19.0058 4.2047L17.4507 1.39962C17.1999 0.947201 16.7239 0.691598 16.2388 0.696229V0.696233Z" fill="white"/>
<path fill-rule="evenodd" clip-rule="evenodd" d="M7.77285 16.1919C6.23199 16.1919 5.00591 17.418 5.00591 18.9588V30.4842C5.00591 32.0251 6.23199 33.2512 7.77285 33.2512C9.31371 33.2512 10.5398 32.0251 10.5398 30.4842V18.9588C10.5398 17.418 9.31371 16.1919 7.77285 16.1919ZM40.0439 16.1919C38.5031 16.1919 37.277 17.418 37.277 18.9588V30.4842C37.277 32.0251 38.5031 33.2512 40.0439 33.2512C41.5848 33.2512 42.8109 32.0251 42.8109 30.4842V18.9588C42.8109 17.418 41.5848 16.1919 40.0439 16.1919Z" fill="#A4C639"/>
<path fill-rule="evenodd" clip-rule="evenodd" d="M19.2982 29.3444C17.7573 29.3444 16.5312 30.5704 16.5312 32.1113V43.6367C16.5312 45.1776 17.7573 46.4036 19.2982 46.4036C20.839 46.4036 22.0651 45.1776 22.0651 43.6367V32.1113C22.0651 30.5704 20.839 29.3444 19.2982 29.3444ZM28.5185 29.3444C26.9776 29.3444 25.7515 30.5704 25.7515 32.1113V43.6367C25.7515 45.1776 26.9776 46.4036 28.5185 46.4036C30.0593 46.4036 31.2854 45.1776 31.2854 43.6367V32.1113C31.2854 30.5704 30.0593 29.3444 28.5185 29.3444Z" fill="#A4C639"/>
<path fill-rule="evenodd" clip-rule="evenodd" d="M16.2473 1.6708C16.1819 1.67146 16.121 1.68834 16.0609 1.72164C15.8636 1.83101 15.7987 2.05774 15.9083 2.25554L17.8575 5.77672C14.1074 7.72798 11.5744 11.4362 11.5694 15.6919H36.2473C36.2422 11.4362 33.7092 7.72798 29.9591 5.77672L31.9083 2.25554C32.0179 2.05774 31.9531 1.83101 31.7558 1.72164C31.6957 1.68834 31.6347 1.67142 31.5693 1.6708C31.4293 1.66944 31.2966 1.73941 31.2219 1.87418L29.2473 5.4335C27.632 4.71701 25.8202 4.31486 23.9083 4.31486C21.9964 4.31486 20.1846 4.71701 18.5693 5.4335L16.5948 1.87418C16.5201 1.73941 16.3873 1.66945 16.2473 1.6708ZM11.5694 16.6665V34.5521C11.5694 36.2047 12.8998 37.5351 14.5524 37.5351H33.2642C34.9168 37.5351 36.2473 36.2047 36.2473 34.5521V16.6665H11.5694Z" fill="#A4C639"/>
<path fill-rule="evenodd" clip-rule="evenodd" d="M18.2134 9.1156C17.65 9.1156 17.1837 9.58191 17.1837 10.1453C17.1837 10.7086 17.65 11.1749 18.2134 11.1749C18.7767 11.1749 19.243 10.7086 19.243 10.1453C19.243 9.58191 18.7767 9.1156 18.2134 9.1156ZM29.6032 9.1156C29.0398 9.1156 28.5735 9.58191 28.5735 10.1453C28.5735 10.7086 29.0398 11.1749 29.6032 11.1749C30.1665 11.1749 30.6328 10.7086 30.6328 10.1453C30.6328 9.58191 30.1665 9.1156 29.6032 9.1156Z" fill="white"/>
</g>
<defs>
<clipPath id="clip0_32_928">
<rect width="39.8438" height="46.7812" fill="white" transform="translate(4.03125 0.65625)"/>
</clipPath>
</defs>
</svg>
