<svg width="48" height="48" viewBox="0 0 48 48" fill="none" xmlns="http://www.w3.org/2000/svg">
<path d="M13.5269 20.0809C13.5269 20.6716 13.5907 21.1505 13.7025 21.5018C13.8302 21.853 13.9898 22.2361 14.2133 22.6512C14.2932 22.7789 14.3251 22.9066 14.3251 23.0184C14.3251 23.178 14.2293 23.3377 14.0218 23.4973L13.016 24.1678C12.8723 24.2636 12.7287 24.3115 12.601 24.3115C12.4413 24.3115 12.2817 24.2317 12.122 24.088C11.8985 23.8485 11.707 23.5931 11.5473 23.3377C11.3877 23.0663 11.228 22.7629 11.0524 22.3958C9.8072 23.8645 8.2427 24.5988 6.35891 24.5988C5.01791 24.5988 3.9483 24.2157 3.16605 23.4494C2.3838 22.6831 1.9847 21.6614 1.9847 20.3843C1.9847 19.0273 2.46362 17.9258 3.43745 17.0956C4.41127 16.2655 5.70438 15.8504 7.3487 15.8504C7.89148 15.8504 8.45024 15.8983 9.04091 15.9781C9.63159 16.0579 10.2382 16.1856 10.8768 16.3293V15.1639C10.8768 13.9506 10.6214 13.1045 10.1265 12.6096C9.61563 12.1148 8.75356 11.8753 7.52431 11.8753C6.96556 11.8753 6.39084 11.9391 5.80016 12.0828C5.20948 12.2265 4.63477 12.4021 4.07602 12.6256C3.82059 12.7374 3.62902 12.8012 3.51727 12.8331C3.40552 12.8651 3.3257 12.881 3.26184 12.881C3.03834 12.881 2.92659 12.7214 2.92659 12.3861V11.6039C2.92659 11.3485 2.95852 11.1569 3.03834 11.0451C3.11816 10.9334 3.26184 10.8216 3.48534 10.7099C4.04409 10.4225 4.71459 10.1831 5.49684 9.9915C6.27909 9.78396 7.10923 9.68818 7.98727 9.68818C9.88702 9.68818 11.2759 10.1192 12.1699 10.9813C13.048 11.8434 13.495 13.1524 13.495 14.9085V20.0809H13.5269ZM7.04538 22.5075C7.5722 22.5075 8.11498 22.4117 8.6897 22.2201C9.26441 22.0286 9.77527 21.6774 10.2063 21.1984C10.4617 20.8951 10.6533 20.5599 10.7491 20.1767C10.8449 19.7936 10.9087 19.3306 10.9087 18.7878V18.1173C10.4458 18.0056 9.95088 17.9098 9.44002 17.8459C8.92916 17.7821 8.43427 17.7501 7.93938 17.7501C6.86977 17.7501 6.08752 17.9577 5.5607 18.3887C5.03388 18.8198 4.77845 19.4264 4.77845 20.2246C4.77845 20.9749 4.97002 21.5337 5.36913 21.9168C5.75227 22.3159 6.31102 22.5075 7.04538 22.5075ZM19.8647 24.2317C19.5774 24.2317 19.3858 24.1838 19.2581 24.072C19.1304 23.9762 19.0186 23.7527 18.9228 23.4494L15.1712 11.109C15.0754 10.7897 15.0275 10.5822 15.0275 10.4704C15.0275 10.215 15.1552 10.0713 15.4107 10.0713H16.9752C17.2785 10.0713 17.486 10.1192 17.5978 10.231C17.7255 10.3268 17.8213 10.5503 17.9171 10.8536L20.5991 21.4219L23.0895 10.8536C23.1693 10.5343 23.2651 10.3268 23.3928 10.231C23.5205 10.1352 23.744 10.0713 24.0314 10.0713H25.3085C25.6119 10.0713 25.8194 10.1192 25.9471 10.231C26.0748 10.3268 26.1866 10.5503 26.2504 10.8536L28.7728 21.5497L31.5346 10.8536C31.6304 10.5343 31.7421 10.3268 31.8539 10.231C31.9816 10.1352 32.1891 10.0713 32.4765 10.0713H33.9612C34.2166 10.0713 34.3603 10.199 34.3603 10.4704C34.3603 10.5503 34.3443 10.6301 34.3284 10.7259C34.3124 10.8216 34.2805 10.9494 34.2166 11.125L30.3692 23.4654C30.2734 23.7847 30.1617 23.9922 30.034 24.088C29.9063 24.1838 29.6987 24.2476 29.4273 24.2476H28.0544C27.7511 24.2476 27.5435 24.1997 27.4158 24.088C27.2881 23.9762 27.1764 23.7687 27.1125 23.4494L24.638 13.1524L22.1795 23.4334C22.0997 23.7527 22.0039 23.9603 21.8762 24.072C21.7485 24.1838 21.525 24.2317 21.2376 24.2317H19.8647ZM40.3788 24.6627C39.5487 24.6627 38.7185 24.5669 37.9203 24.3753C37.1221 24.1838 36.4995 23.9762 36.0844 23.7368C35.829 23.5931 35.6534 23.4334 35.5895 23.2898C35.5257 23.1461 35.4938 22.9864 35.4938 22.8428V22.0286C35.4938 21.6933 35.6215 21.5337 35.8609 21.5337C35.9567 21.5337 36.0525 21.5497 36.1483 21.5816C36.2441 21.6135 36.3878 21.6774 36.5474 21.7412C37.0902 21.9807 37.6809 22.1723 38.3035 22.3C38.942 22.4277 39.5647 22.4915 40.2032 22.4915C41.209 22.4915 41.9912 22.3159 42.534 21.9647C43.0768 21.6135 43.3642 21.1027 43.3642 20.4481C43.3642 20.0011 43.2205 19.6339 42.9331 19.3306C42.6458 19.0273 42.103 18.7559 41.3207 18.5005L39.0059 17.7821C37.8405 17.4149 36.9784 16.8721 36.4516 16.1537C35.9248 15.4513 35.6534 14.669 35.6534 13.8389C35.6534 13.1684 35.7971 12.5777 36.0844 12.0669C36.3718 11.556 36.7549 11.109 37.2339 10.7578C37.7128 10.3906 38.2556 10.1192 38.8942 9.92764C39.5327 9.73607 40.2032 9.65625 40.9057 9.65625C41.2569 9.65625 41.624 9.67221 41.9753 9.72011C42.3424 9.768 42.6777 9.83186 43.0129 9.89571C43.3322 9.97554 43.6355 10.0554 43.9229 10.1511C44.2103 10.2469 44.4338 10.3427 44.5934 10.4385C44.8169 10.5662 44.9766 10.6939 45.0723 10.8376C45.1681 10.9653 45.216 11.1409 45.216 11.3644V12.1148C45.216 12.45 45.0883 12.6256 44.8488 12.6256C44.7211 12.6256 44.5136 12.5618 44.2422 12.434C43.3322 12.019 42.3105 11.8114 41.177 11.8114C40.2671 11.8114 39.5487 11.9551 39.0538 12.2584C38.5589 12.5618 38.3035 13.0247 38.3035 13.6793C38.3035 14.1263 38.4631 14.5094 38.7824 14.8127C39.1017 15.116 39.6924 15.4194 40.5385 15.6908L42.8054 16.4091C43.9548 16.7763 44.785 17.2872 45.2799 17.9417C45.7748 18.5963 46.0142 19.3466 46.0142 20.1767C46.0142 20.8632 45.8705 21.4858 45.5992 22.0286C45.3118 22.5714 44.9287 23.0503 44.4338 23.4334C43.9389 23.8325 43.3482 24.1199 42.6617 24.3274C41.9433 24.5509 41.193 24.6627 40.3788 24.6627Z" fill="#252F3E"/>
<path d="M43.3961 32.4214C38.1438 36.3007 30.5129 38.3601 23.9516 38.3601C14.7561 38.3601 6.47065 34.9597 0.212647 29.3083C-0.282246 28.8613 0.164754 28.2547 0.755433 28.6059C7.52429 32.5331 15.8736 34.9118 24.5103 34.9118C30.3373 34.9118 36.739 33.6985 42.6298 31.2081C43.5078 30.809 44.2581 31.7828 43.3961 32.4214ZM45.5832 29.9309C44.9127 29.0689 41.1451 29.5159 39.4369 29.7234C38.9261 29.7873 38.8462 29.3403 39.3092 29.005C42.3105 26.8977 47.2435 27.5044 47.8182 28.2068C48.3929 28.9252 47.6585 33.8582 44.8488 36.2209C44.4178 36.5881 44.0027 36.3965 44.1943 35.9176C44.8329 34.3371 46.2537 30.7771 45.5832 29.9309Z" fill="#FF9900"/>
</svg>
