<svg width="48" height="48" viewBox="0 0 48 48" fill="none" xmlns="http://www.w3.org/2000/svg">
<path fill-rule="evenodd" clip-rule="evenodd" d="M7.92124 41.8101L4.34851 1.73914H43.6071L40.0306 41.8036L23.9541 46.2609L7.92124 41.8101Z" fill="#0071BC"/>
<path fill-rule="evenodd" clip-rule="evenodd" d="M24.0108 42.8517L36.9853 39.2824L40.0252 5.07617H24.0108V42.8517Z" fill="#29ABE2"/>
<path fill-rule="evenodd" clip-rule="evenodd" d="M12.5265 19.7981L12.9569 24.7054L24.0108 19.7981V14.8828L12.5265 19.7981Z" fill="#B3B3B3"/>
<path fill-rule="evenodd" clip-rule="evenodd" d="M36.2534 9.63599L24.0108 14.8828V19.7981L35.8313 14.5433L36.2534 9.63599Z" fill="#E6E6E6"/>
<path fill-rule="evenodd" clip-rule="evenodd" d="M24.0099 32.638L23.972 32.6437L18.49 31.1715L18.1319 27.2572H13.1981L13.8866 34.9686L23.9709 37.7607L24.0099 37.7515V32.638Z" fill="#E6E6E6"/>
<path fill-rule="evenodd" clip-rule="evenodd" d="M24.0108 19.7981V24.7054H30.0127L29.4672 31.1214L24.0108 32.6422V37.7554L34.0616 34.9632L35.3851 19.7981H24.0108Z" fill="white"/>
<path fill-rule="evenodd" clip-rule="evenodd" d="M24.0108 19.7981H12.5265L12.9569 24.7054H24.0108V19.7981Z" fill="#E6E6E6"/>
<path fill-rule="evenodd" clip-rule="evenodd" d="M24.01 14.5434V9.63611H23.9602H11.6532L12.0887 14.5434H24.01Z" fill="#E6E6E6"/>
<path fill-rule="evenodd" clip-rule="evenodd" d="M24.0108 9.63599V14.4818V14.5433H35.8313L36.2534 9.63599H24.0108Z" fill="white"/>
</svg>
