<svg width="48" height="48" viewBox="0 0 48 48" fill="none" xmlns="http://www.w3.org/2000/svg">
<g clip-path="url(#clip0_32_858)">
<path d="M16.6379 46.2609C20.7339 46.2609 24.0582 42.9366 24.0582 38.8406V31.4203H16.6379C12.5419 31.4203 9.21765 34.7446 9.21765 38.8406C9.21765 42.9366 12.5419 46.2609 16.6379 46.2609Z" fill="#0ACF83"/>
<path d="M9.21765 23.9998C9.21765 19.9038 12.5419 16.5795 16.6379 16.5795H24.0582V31.42H16.6379C12.5419 31.42 9.21765 28.0958 9.21765 23.9998Z" fill="#A259FF"/>
<path d="M9.21765 9.15943C9.21765 5.06343 12.5419 1.73914 16.6379 1.73914H24.0582V16.5797H16.6379C12.5419 16.5797 9.21765 13.2554 9.21765 9.15943Z" fill="#F24E1E"/>
<path d="M24.0594 1.73914H31.4797C35.5757 1.73914 38.9 5.06343 38.9 9.15943C38.9 13.2554 35.5757 16.5797 31.4797 16.5797H24.0594V1.73914Z" fill="#FF7262"/>
<path d="M38.9 23.9998C38.9 28.0958 35.5757 31.42 31.4797 31.42C27.3837 31.42 24.0594 28.0958 24.0594 23.9998C24.0594 19.9038 27.3837 16.5795 31.4797 16.5795C35.5757 16.5795 38.9 19.9038 38.9 23.9998Z" fill="#1ABCFE"/>
</g>
<defs>
<clipPath id="clip0_32_858">
<rect width="44.5217" height="44.5217" fill="white" transform="translate(1.73914 1.73914)"/>
</clipPath>
</defs>
</svg>
