<svg width="48" height="48" viewBox="0 0 48 48" fill="none" xmlns="http://www.w3.org/2000/svg">
<path d="M6.5625 38.744L6.85308 38.3371L20.5991 12.2547L20.6281 11.9786L14.5686 0.596651C14.0609 -0.35679 12.6317 -0.115727 12.4651 0.951576L6.5625 38.744Z" fill="#FFC24A"/>
<path d="M6.73389 38.4337L6.9537 38.0051L20.5557 12.1959L14.5113 0.76773C14.009 -0.175721 12.7333 0.064784 12.5684 1.1209L6.73389 38.4337Z" fill="#FFA712"/>
<path d="M25.0456 20.588L29.5573 15.9673L25.0442 7.35178C24.6158 6.53626 23.4196 6.53391 22.9958 7.35178L20.5846 11.9503V12.3419L25.0456 20.588Z" fill="#F4BD62"/>
<path d="M24.9651 20.3955L29.3513 15.9032L24.9651 7.55103C24.5486 6.7582 23.5367 6.67513 23.1246 7.47025L20.7007 12.14L20.6282 12.3787L24.9651 20.3955Z" fill="#FFA50E"/>
<path d="M6.5625 38.744L6.69422 38.6116L7.17279 38.4171L24.7621 20.8931L24.9849 20.2865L20.5971 11.9252L6.5625 38.744Z" fill="#F6820C"/>
<path d="M25.6089 47.5816L41.5276 38.7036L36.9818 10.7072C36.8396 9.83129 35.7649 9.48499 35.138 10.1131L6.5625 38.7439L22.3899 47.5809C23.3902 48.1394 24.6084 48.1396 25.6089 47.5816Z" fill="#FDE068"/>
<path d="M41.385 38.6293L36.8736 10.8454C36.7325 9.97611 35.8389 9.6164 35.2167 10.2397L6.73898 38.6897L22.3925 47.4391C23.3852 47.9934 24.5942 47.9936 25.5871 47.4399L41.385 38.6293Z" fill="#FCCA3F"/>
<path d="M25.6089 47.3202C24.6084 47.8781 23.3902 47.8779 22.3899 47.3194L6.68998 38.6094L6.5625 38.744L22.3899 47.5809C23.3902 48.1394 24.6084 48.1397 25.6089 47.5817L41.5276 38.7037L41.4886 38.4639L25.6089 47.3202Z" fill="#EEAB37"/>
</svg>
