<svg width="48" height="48" viewBox="0 0 48 48" fill="none" xmlns="http://www.w3.org/2000/svg">
<path d="M0.223145 35.4334H4.19249V18.536H0.223145V35.4334ZM2.19986 16.32C3.44327 16.32 4.41568 15.3635 4.41568 14.168C4.41568 12.9564 3.44327 12 2.19986 12C0.972401 12 0 12.9565 0 14.168C0 15.3636 0.972401 16.32 2.19986 16.32ZM17.4082 12.0477C10.6971 12.0477 6.4885 16.6228 6.4885 23.9399C6.4885 31.257 10.6967 35.8162 17.4082 35.8162C24.1034 35.8162 28.312 31.257 28.312 23.9399C28.312 16.6228 24.1038 12.0477 17.4082 12.0477ZM17.4082 15.5548C21.505 15.5548 24.1193 18.8068 24.1193 23.9398C24.1193 29.0569 21.505 32.309 17.4082 32.309C13.2955 32.309 10.6971 29.057 10.6971 23.9398C10.6971 18.8068 13.2955 15.5548 17.4082 15.5548ZM29.9864 28.9614C30.1618 33.2019 33.6369 35.8161 38.9293 35.8161C44.4929 35.8161 48 33.0742 48 28.7063C48 25.279 46.0233 23.3501 41.3526 22.2822L38.7064 21.6764C35.8848 21.0069 34.7211 20.1142 34.7211 18.5838C34.7211 16.6709 36.4746 15.3956 39.073 15.3956C41.7033 15.3956 43.5045 16.6869 43.6959 18.8389H47.6174C47.5217 14.7898 44.1741 12.0478 39.105 12.0478C34.0993 12.0478 30.5444 14.8056 30.5444 18.8866C30.5444 22.1705 32.553 24.211 36.7931 25.1835L39.7741 25.8849C42.6754 26.5704 43.8551 27.5268 43.8551 29.1847C43.8551 31.0976 41.9262 32.4686 39.1526 32.4686C36.347 32.4686 34.2269 31.0817 33.9719 28.9615H29.9866L29.9864 28.9614Z" fill="black"/>
</svg>
