<svg width="48" height="48" viewBox="0 0 48 48" fill="none" xmlns="http://www.w3.org/2000/svg">
<g clip-path="url(#clip0_32_884)">
<path fill-rule="evenodd" clip-rule="evenodd" d="M1.73914 1.73914H46.2609V46.2609H1.73914V1.73914Z" fill="#F7DF1E"/>
<path fill-rule="evenodd" clip-rule="evenodd" d="M13.4462 38.9449L16.8534 36.883C17.5106 38.0484 18.1086 39.0344 19.5428 39.0344C20.9176 39.0344 21.7844 38.4966 21.7844 36.4048V22.1791H25.9683V36.464C25.9683 40.7974 23.4282 42.7699 19.7222 42.7699C16.3752 42.7699 14.4324 41.0364 13.4462 38.9446" fill="black"/>
<path fill-rule="evenodd" clip-rule="evenodd" d="M28.2411 38.4965L31.6478 36.5241C32.5446 37.9886 33.7101 39.0644 35.7721 39.0644C37.5057 39.0644 38.6112 38.1977 38.6112 37.0022C38.6112 35.5677 37.4756 35.0596 35.5629 34.2231L34.5172 33.7745C31.4985 32.4896 29.4961 30.8758 29.4961 27.4688C29.4961 24.3308 31.8869 21.9398 35.6228 21.9398C38.2826 21.9398 40.1953 22.8664 41.5699 25.2871L38.3123 27.379C37.595 26.0941 36.8182 25.5861 35.6229 25.5861C34.3975 25.5861 33.6204 26.3631 33.6204 27.379C33.6204 28.6343 34.3975 29.1424 36.1905 29.9195L37.2364 30.3678C40.7928 31.8921 42.7952 33.4459 42.7952 36.9424C42.7952 40.7083 39.8366 42.7702 35.8619 42.7702C31.9767 42.7702 29.4663 40.9174 28.2412 38.4965" fill="black"/>
</g>
<defs>
<clipPath id="clip0_32_884">
<rect width="44.5217" height="44.5217" fill="white" transform="translate(1.73914 1.73914)"/>
</clipPath>
</defs>
</svg>
