<svg width="48" height="48" viewBox="0 0 48 48" fill="none" xmlns="http://www.w3.org/2000/svg">
<g clip-path="url(#clip0_32_896)">
<path d="M38.3449 17.0128C37.8831 16.8539 37.4045 16.7035 36.9117 16.5612C36.9927 16.2307 37.0671 15.9044 37.1332 15.5837C38.2181 10.3174 37.5087 6.07486 35.0865 4.67804C32.7639 3.33866 28.9654 4.73517 25.1292 8.07374C24.7603 8.39477 24.3904 8.73467 24.0206 9.09089C23.7742 8.8552 23.5282 8.62744 23.2829 8.40959C19.2624 4.83978 15.2325 3.33541 12.8126 4.73628C10.4922 6.07954 9.80508 10.0679 10.7817 15.0588C10.876 15.5409 10.9862 16.0332 11.1108 16.5337C10.5405 16.6956 9.98989 16.8682 9.46304 17.0518C4.74945 18.6952 1.73913 21.2708 1.73913 23.9423C1.73913 26.7015 4.97071 29.469 9.88029 31.1471C10.2677 31.2795 10.6698 31.4047 11.0841 31.5236C10.9496 32.0649 10.8326 32.5954 10.7344 33.1128C9.80326 38.0171 10.5304 41.9113 12.8446 43.246C15.235 44.6245 19.2467 43.2076 23.1531 39.7929C23.4618 39.523 23.7717 39.2368 24.0821 38.9368C24.4844 39.3242 24.8862 39.6909 25.2857 40.0348C29.0695 43.2909 32.8066 44.6057 35.1187 43.2672C37.5066 41.8848 38.2827 37.7015 37.2752 32.6119C37.1982 32.2232 37.1087 31.8261 37.0081 31.4219C37.2898 31.3386 37.5664 31.2526 37.8361 31.1632C42.9401 29.4722 46.2609 26.7383 46.2609 23.9423C46.2609 21.2611 43.1535 18.6682 38.3449 17.0128ZM37.2379 29.3579C36.9945 29.4385 36.7447 29.5164 36.4901 29.5919C35.9267 27.8081 35.1662 25.9113 34.2356 23.9516C35.1237 22.0385 35.8547 20.166 36.4024 18.3937C36.8578 18.5255 37.2999 18.6645 37.7258 18.8112C41.8458 20.2295 44.3589 22.3265 44.3589 23.9423C44.3589 25.6634 41.6448 27.8976 37.2379 29.3579ZM35.4093 32.9813C35.8549 35.2318 35.9185 37.2666 35.6234 38.8573C35.3582 40.2866 34.825 41.2395 34.1656 41.6212C32.7625 42.4333 29.762 41.3777 26.5261 38.5931C26.1551 38.2738 25.7815 37.933 25.4067 37.5723C26.6611 36.2002 27.9149 34.6052 29.1386 32.8338C31.2909 32.6428 33.3243 32.3305 35.1684 31.9043C35.2592 32.2706 35.3398 32.63 35.4093 32.9813ZM16.9176 41.4809C15.5468 41.965 14.455 41.9788 13.795 41.5983C12.3906 40.7883 11.8068 37.6616 12.6032 33.4675C12.6944 32.9872 12.803 32.4938 12.9281 31.9895C14.7519 32.3928 16.7704 32.683 18.9279 32.8579C20.1598 34.5913 21.4498 36.1845 22.7498 37.5796C22.4658 37.8538 22.1828 38.1149 21.9015 38.3609C20.1741 39.8708 18.4431 40.942 16.9176 41.4809ZM10.4954 29.3473C8.32449 28.6053 6.53166 27.641 5.30276 26.5886C4.19851 25.643 3.641 24.7041 3.641 23.9423C3.641 22.3211 6.05799 20.2533 10.0891 18.8478C10.5782 18.6773 11.0902 18.5166 11.6216 18.3656C12.1787 20.1779 12.9095 22.0726 13.7915 23.9886C12.8981 25.933 12.1569 27.8579 11.5943 29.6914C11.2155 29.5825 10.8485 29.468 10.4954 29.3473ZM12.6482 14.6936C11.8115 10.4175 12.3672 7.19179 13.7655 6.38235C15.255 5.52005 18.5486 6.7495 22.02 9.83186C22.2419 10.0289 22.4646 10.2351 22.688 10.4484C21.3945 11.8374 20.1163 13.4187 18.8953 15.1419C16.8014 15.336 14.7971 15.6477 12.9542 16.0652C12.8384 15.5991 12.7358 15.1412 12.6482 14.6936ZM31.8528 19.4357C31.4123 18.6748 30.96 17.9318 30.499 17.2091C31.9195 17.3887 33.2805 17.6271 34.5586 17.9188C34.1749 19.1486 33.6966 20.4344 33.1337 21.7525C32.7298 20.9858 32.3027 20.2127 31.8528 19.4357ZM24.0212 11.8077C24.8985 12.7581 25.7771 13.8192 26.6412 14.9705C25.7704 14.9294 24.8888 14.908 24 14.908C23.1196 14.908 22.2445 14.9289 21.3791 14.9694C22.2441 13.8287 23.1302 12.769 24.0212 11.8077ZM16.1395 19.4489C15.6994 20.2119 15.2802 20.9808 14.8827 21.7511C14.3288 20.4376 13.855 19.1459 13.4679 17.8987C14.7382 17.6144 16.0928 17.382 17.5043 17.2058C17.0367 17.9351 16.5807 18.6836 16.1395 19.4487V19.4489ZM17.5449 30.8145C16.0866 30.6518 14.7116 30.4313 13.4417 30.1549C13.8349 28.8854 14.3192 27.5662 14.8848 26.2243C15.2833 26.9941 15.7042 27.7632 16.147 28.528H16.1471C16.5981 29.3071 17.0653 30.0702 17.5449 30.8145ZM24.0739 36.211C23.1724 35.2384 22.2733 34.1625 21.3951 33.0053C22.2476 33.0387 23.1167 33.0558 24 33.0558C24.9075 33.0558 25.8046 33.0354 26.6875 32.9961C25.8206 34.1742 24.9452 35.2517 24.0739 36.211ZM33.1518 26.1559C33.7469 27.5123 34.2485 28.8246 34.6468 30.0725C33.3559 30.3669 31.9622 30.6041 30.4937 30.7804C30.9559 30.048 31.4122 29.2923 31.8605 28.5149C32.314 27.7285 32.7446 26.9408 33.1518 26.1559ZM30.213 27.5647C29.517 28.7714 28.8025 29.9234 28.0772 31.0108C26.756 31.1052 25.3911 31.1539 24 31.1539C22.6145 31.1539 21.2668 31.1108 19.969 31.0266C19.2144 29.925 18.4844 28.7696 17.7929 27.5751H17.793C17.1034 26.3839 16.4686 25.1825 15.8934 23.9879C16.4684 22.7906 17.1015 21.5879 17.7873 20.3988L17.7871 20.399C18.4747 19.2067 19.1983 18.057 19.9459 16.9623C21.27 16.8622 22.6277 16.81 23.9999 16.81H24C25.3784 16.81 26.7379 16.8626 28.0615 16.9636C28.7978 18.0503 29.5165 19.1963 30.2067 20.3887C30.9048 21.5946 31.5461 22.7892 32.126 23.9609C31.5478 25.1527 30.908 26.3594 30.213 27.5647ZM34.1365 6.32576C35.6274 7.18552 36.2071 10.6529 35.2704 15.1998C35.2107 15.4899 35.1434 15.7854 35.0703 16.0849C33.2232 15.6587 31.2174 15.3416 29.1174 15.1446C27.8941 13.4025 26.6264 11.8187 25.3539 10.4475C25.696 10.1184 26.0376 9.8046 26.3778 9.50845C29.6647 6.64798 32.7368 5.51862 34.1365 6.32576ZM24 19.9667C26.1956 19.9667 27.9756 21.7466 27.9756 23.9423C27.9756 26.1379 26.1956 27.9179 24 27.9179C21.8043 27.9179 20.0244 26.1379 20.0244 23.9423C20.0244 21.7466 21.8043 19.9667 24 19.9667Z" fill="#00D8FF"/>
</g>
<defs>
<clipPath id="clip0_32_896">
<rect width="44.5217" height="44.5217" fill="white" transform="translate(1.73913 1.73914)"/>
</clipPath>
</defs>
</svg>
