<svg width="144" height="30" viewBox="0 0 144 30" fill="none" xmlns="http://www.w3.org/2000/svg">
<path fill-rule="evenodd" clip-rule="evenodd" d="M143.425 0H140.548V27.1233H0V30H140.548H143.425V27.1233V0Z" fill="white"/>
<path d="M137.734 16.561H135.256V22.0545C135.256 22.4691 135.361 22.7593 135.571 22.9251C135.782 23.091 136.09 23.1808 136.495 23.1946C137.013 23.1946 137.491 23.1739 137.928 23.1324V25.5579C137.499 25.627 136.859 25.6615 136.009 25.6615C134.656 25.6615 133.591 25.3955 132.814 24.8634C132.036 24.3313 131.652 23.5401 131.66 22.4898V16.561H129.838V14.26H131.66V11.5651H135.256V14.26H137.734V16.561Z" fill="white"/>
<path d="M128.671 16.561H126.047V25.5164H122.452V16.561H120.581V14.2599H122.452V13.41C122.452 12.2491 122.836 11.3577 123.606 10.7358C124.375 10.1139 125.432 9.80298 126.776 9.80298C127.57 9.80298 128.283 9.86517 128.914 9.98955V12.3113C128.404 12.2699 128.04 12.2491 127.821 12.2491C127.23 12.2491 126.784 12.3562 126.485 12.5704C126.193 12.7847 126.047 13.1198 126.047 13.5758V14.2599H128.671V16.561Z" fill="white"/>
<path d="M112.903 25.7444C111.591 25.7444 110.449 25.5026 109.478 25.0189C108.506 24.5352 107.757 23.8545 107.23 22.977C106.704 22.0925 106.441 21.0733 106.441 19.9193C106.441 18.7653 106.7 17.7495 107.218 16.872C107.744 15.9944 108.494 15.3172 109.465 14.8404C110.445 14.3567 111.591 14.1149 112.903 14.1149C114.215 14.1149 115.361 14.3567 116.341 14.8404C117.321 15.3172 118.074 15.9944 118.601 16.872C119.127 17.7495 119.39 18.7653 119.39 19.9193C119.39 21.0733 119.127 22.0925 118.601 22.977C118.074 23.8545 117.321 24.5352 116.341 25.0189C115.361 25.5026 114.215 25.7444 112.903 25.7444ZM112.928 23.3605C113.527 23.3605 114.037 23.2154 114.458 22.9251C114.879 22.628 115.195 22.2203 115.406 21.7021C115.616 21.1838 115.722 20.5896 115.722 19.9193C115.722 19.249 115.616 18.6548 115.406 18.1365C115.195 17.6113 114.879 17.2002 114.458 16.9031C114.037 16.6059 113.527 16.4574 112.928 16.4574C112.32 16.4574 111.802 16.6059 111.373 16.9031C110.951 17.2002 110.632 17.6113 110.413 18.1365C110.194 18.6548 110.085 19.249 110.085 19.9193C110.085 20.5826 110.194 21.1769 110.413 21.7021C110.632 22.2203 110.951 22.628 111.373 22.9251C111.802 23.2154 112.32 23.3605 112.928 23.3605Z" fill="white"/>
<path d="M101.095 17.5975C101.023 17.2036 100.792 16.8892 100.403 16.6543C100.014 16.4124 99.5243 16.2915 98.9331 16.2915C98.5444 16.2915 98.1921 16.3433 97.8762 16.447C97.5685 16.5437 97.3255 16.6819 97.1473 16.8616C96.9692 17.0344 96.8841 17.2313 96.8922 17.4524C96.8679 17.9845 97.4349 18.3576 98.593 18.5718L100.95 18.9864C102.229 19.2145 103.181 19.5772 103.804 20.0748C104.436 20.5723 104.756 21.2253 104.764 22.0338C104.756 22.7662 104.505 23.4123 104.011 23.972C103.525 24.5317 102.841 24.9671 101.958 25.278C101.075 25.589 100.059 25.7444 98.9088 25.7444C97.7345 25.7444 96.7181 25.6028 95.8597 25.3195C95.0012 25.0292 94.325 24.6181 93.831 24.086C93.345 23.547 93.0535 22.9113 92.9563 22.1789H96.5764C96.6574 22.6211 96.9003 22.9562 97.3053 23.1843C97.7102 23.4123 98.2447 23.5263 98.9088 23.5263C99.5648 23.5263 100.091 23.4192 100.488 23.205C100.893 22.9908 101.095 22.704 101.095 22.3447C101.095 22.0545 100.95 21.8195 100.658 21.6399C100.375 21.4533 99.9211 21.3013 99.2975 21.1838L97.1109 20.8107C95.8637 20.6034 94.9162 20.2268 94.2683 19.6809C93.6204 19.135 93.3045 18.4475 93.3207 17.6182C93.3126 16.9065 93.5354 16.2881 93.9889 15.7629C94.4424 15.2308 95.0903 14.8231 95.9326 14.5398C96.7748 14.2565 97.7588 14.1149 98.8845 14.1149C99.9778 14.1149 100.933 14.2565 101.751 14.5398C102.569 14.8231 103.209 15.2274 103.671 15.7525C104.141 16.2708 104.408 16.8858 104.473 17.5975H101.095Z" fill="white"/>
<path d="M85.2545 25.7444C83.9182 25.7444 82.7601 25.5095 81.7802 25.0396C80.8083 24.5697 80.0592 23.8995 79.5328 23.0288C79.0064 22.1512 78.7432 21.1216 78.7432 19.94C78.7432 18.786 79.0023 17.7703 79.5206 16.8927C80.047 16.0082 80.7921 15.3241 81.7559 14.8404C82.7196 14.3567 83.8372 14.1149 85.1087 14.1149C86.2911 14.1149 87.348 14.3291 88.2793 14.7575C89.2188 15.179 89.9557 15.8182 90.4903 16.675C91.0329 17.5319 91.3042 18.5787 91.3042 19.8156V20.6863H82.2904C82.2904 21.246 82.4119 21.7332 82.6548 22.1478C82.9059 22.5624 83.2582 22.8837 83.7117 23.1117C84.1733 23.3328 84.7119 23.4434 85.3274 23.4434C85.9186 23.4434 86.4288 23.3432 86.858 23.1428C87.2872 22.9355 87.595 22.6557 87.7813 22.3032H91.207C91.0369 22.9942 90.6887 23.5989 90.1623 24.1171C89.6358 24.6354 88.9515 25.0362 88.1093 25.3195C87.2751 25.6028 86.3235 25.7444 85.2545 25.7444ZM87.9027 18.7584C87.9027 18.3092 87.7853 17.9085 87.5504 17.5561C87.3237 17.1967 87.0038 16.9169 86.5908 16.7165C86.1777 16.5161 85.708 16.4159 85.1816 16.4159C84.6471 16.4159 84.1612 16.5196 83.7238 16.7269C83.2946 16.9342 82.9504 17.2175 82.6913 17.5768C82.4402 17.9361 82.3066 18.33 82.2904 18.7584H87.9027Z" fill="white"/>
<path d="M73.3981 17.5975C73.3252 17.2036 73.0944 16.8892 72.7056 16.6543C72.3169 16.4124 71.8269 16.2915 71.2357 16.2915C70.847 16.2915 70.4947 16.3433 70.1788 16.447C69.8711 16.5437 69.6281 16.6819 69.45 16.8616C69.2718 17.0344 69.1868 17.2313 69.1949 17.4524C69.1706 17.9845 69.7375 18.3576 70.8956 18.5718L73.2523 18.9864C74.5319 19.2145 75.4835 19.5772 76.107 20.0748C76.7387 20.5723 77.0586 21.2253 77.0667 22.0338C77.0586 22.7662 76.8076 23.4123 76.3136 23.972C75.8276 24.5317 75.1433 24.9671 74.2606 25.278C73.3778 25.589 72.3614 25.7444 71.2114 25.7444C70.0371 25.7444 69.0207 25.6028 68.1623 25.3195C67.3038 25.0292 66.6276 24.6181 66.1336 24.086C65.6476 23.547 65.3561 22.9113 65.2589 22.1789H68.879C68.96 22.6211 69.203 22.9562 69.6079 23.1843C70.0128 23.4123 70.5473 23.5263 71.2114 23.5263C71.8674 23.5263 72.3938 23.4192 72.7907 23.205C73.1956 22.9908 73.3981 22.704 73.3981 22.3447C73.3981 22.0545 73.2523 21.8195 72.9607 21.6399C72.6773 21.4533 72.2237 21.3013 71.6002 21.1838L69.4135 20.8107C68.1663 20.6034 67.2188 20.2268 66.5709 19.6809C65.923 19.135 65.6072 18.4475 65.6234 17.6182C65.6153 16.9065 65.838 16.2881 66.2915 15.7629C66.745 15.2308 67.3929 14.8231 68.2352 14.5398C69.0774 14.2565 70.0614 14.1149 71.1871 14.1149C72.2804 14.1149 73.2361 14.2565 74.054 14.5398C74.872 14.8231 75.5118 15.2274 75.9734 15.7525C76.4431 16.2708 76.7104 16.8858 76.7752 17.5975H73.3981Z" fill="white"/>
<path d="M73.3981 17.5975C73.3252 17.2036 73.0944 16.8892 72.7056 16.6543C72.3169 16.4124 71.8269 16.2915 71.2357 16.2915C70.847 16.2915 70.4947 16.3433 70.1788 16.447C69.8711 16.5437 69.6281 16.6819 69.45 16.8616C69.2718 17.0344 69.1868 17.2313 69.1949 17.4524C69.1706 17.9845 69.7375 18.3576 70.8956 18.5718L73.2523 18.9864C74.5319 19.2145 75.4835 19.5772 76.107 20.0748C76.7387 20.5723 77.0586 21.2253 77.0667 22.0338C77.0586 22.7662 76.8076 23.4123 76.3136 23.972C75.8276 24.5317 75.1433 24.9671 74.2606 25.278C73.3778 25.589 72.3614 25.7444 71.2114 25.7444C70.0371 25.7444 69.0207 25.6028 68.1623 25.3195C67.3038 25.0292 66.6276 24.6181 66.1336 24.086C65.6476 23.547 65.3561 22.9113 65.2589 22.1789H68.879C68.96 22.6211 69.203 22.9562 69.6079 23.1843C70.0128 23.4123 70.5473 23.5263 71.2114 23.5263C71.8674 23.5263 72.3938 23.4192 72.7907 23.205C73.1956 22.9908 73.3981 22.704 73.3981 22.3447C73.3981 22.0545 73.2523 21.8195 72.9607 21.6399C72.6773 21.4533 72.2237 21.3013 71.6002 21.1838L69.4135 20.8107C68.1663 20.6034 67.2188 20.2268 66.5709 19.6809C65.923 19.135 65.6072 18.4475 65.6234 17.6182C65.6153 16.9065 65.838 16.2881 66.2915 15.7629C66.745 15.2308 67.3929 14.8231 68.2352 14.5398C69.0774 14.2565 70.0614 14.1149 71.1871 14.1149C72.2804 14.1149 73.2361 14.2565 74.054 14.5398C74.872 14.8231 75.5118 15.2274 75.9734 15.7525C76.4431 16.2708 76.7104 16.8858 76.7752 17.5975H73.3981Z" fill="white"/>
<path d="M59.4765 14.2599H63.0723V25.5163H59.6222V23.4848H59.4765C59.1606 24.155 58.6545 24.6871 57.958 25.081C57.2696 25.4679 56.4395 25.6614 55.4676 25.6614C54.5849 25.6614 53.8074 25.4921 53.1352 25.1535C52.4711 24.8149 51.9528 24.3278 51.5803 23.6921C51.2078 23.0494 51.0215 22.2962 51.0215 21.4325V14.2599H54.6173V20.8935C54.6173 21.5569 54.8238 22.0855 55.2368 22.4794C55.658 22.8732 56.2208 23.0702 56.9254 23.0702C57.3789 23.0702 57.8001 22.9803 58.1888 22.8007C58.5775 22.6141 58.8893 22.3446 59.1242 21.9922C59.359 21.6398 59.4765 21.2183 59.4765 20.7277V14.2599Z" fill="white"/>
<path d="M42.2749 25.7444C40.9629 25.7444 39.821 25.5026 38.8492 25.0189C37.8774 24.5352 37.1282 23.8545 36.6018 22.977C36.0754 22.0925 35.8122 21.0733 35.8122 19.9193C35.8122 18.7653 36.0714 17.7495 36.5897 16.872C37.1161 15.9944 37.8652 15.3172 38.837 14.8404C39.817 14.3567 40.9629 14.1149 42.2749 14.1149C43.5869 14.1149 44.7329 14.3567 45.7128 14.8404C46.6927 15.3172 47.4459 15.9944 47.9723 16.872C48.4987 17.7495 48.7619 18.7653 48.7619 19.9193C48.7619 21.0733 48.4987 22.0925 47.9723 22.977C47.4459 23.8545 46.6927 24.5352 45.7128 25.0189C44.7329 25.5026 43.5869 25.7444 42.2749 25.7444ZM42.2992 23.3605C42.8985 23.3605 43.4087 23.2154 43.8299 22.9251C44.251 22.628 44.5668 22.2203 44.7774 21.7021C44.988 21.1838 45.0932 20.5896 45.0932 19.9193C45.0932 19.249 44.988 18.6548 44.7774 18.1365C44.5668 17.6113 44.251 17.2002 43.8299 16.9031C43.4087 16.6059 42.8985 16.4574 42.2992 16.4574C41.6918 16.4574 41.1735 16.6059 40.7443 16.9031C40.3231 17.2002 40.0032 17.6113 39.7846 18.1365C39.5659 18.6548 39.4566 19.249 39.4566 19.9193C39.4566 20.5826 39.5659 21.1769 39.7846 21.7021C40.0032 22.2203 40.3231 22.628 40.7443 22.9251C41.1735 23.2154 41.6918 23.3605 42.2992 23.3605Z" fill="white"/>
<path d="M25.0249 25.5164H21.4291V10.5078H24.9277V16.2293H25.0735C25.3812 15.559 25.8712 15.0408 26.5434 14.6746C27.2156 14.3014 28.0376 14.1148 29.0094 14.1148C29.9246 14.1148 30.7263 14.2841 31.4147 14.6227C32.1031 14.9613 32.6336 15.4485 33.0061 16.0842C33.3867 16.7199 33.577 17.4731 33.577 18.3438V25.5164H29.9812V18.8828C29.9812 18.1848 29.7707 17.6424 29.3496 17.2554C28.9365 16.8616 28.3534 16.6646 27.6002 16.6646C27.0981 16.6646 26.6527 16.7579 26.264 16.9445C25.8752 17.1242 25.5715 17.3902 25.3529 17.7426C25.1342 18.095 25.0249 18.5165 25.0249 19.0071V25.5164Z" fill="white"/>
<path d="M10.1557 25.5164H6.55988V14.26H9.9856V16.2293H10.1314C10.4391 15.566 10.9372 15.0477 11.6256 14.6746C12.314 14.3014 13.136 14.1149 14.0916 14.1149C15.0068 14.1149 15.8085 14.2842 16.4969 14.6228C17.1853 14.9613 17.7158 15.452 18.0883 16.0946C18.4608 16.7303 18.6431 17.48 18.635 18.3438V25.5164H15.0635V18.8828C15.0635 18.1918 14.8529 17.6493 14.4318 17.2555C14.0106 16.8616 13.4275 16.6647 12.6825 16.6647C11.9131 16.6647 11.2976 16.872 10.836 17.2866C10.3824 17.7012 10.1557 18.2747 10.1557 19.0072V25.5164Z" fill="white"/>
<path d="M0.170072 14.26H3.76587V25.5164H0.170072V14.26Z" fill="white"/>
<path d="M3.76587 13.544L0 10.5083L3.76587 10.5083V13.544Z" fill="#FFA500"/>
</svg>
