<svg width="384" height="384" viewBox="0 0 384 384" fill="none" xmlns="http://www.w3.org/2000/svg">
<path d="M326.8 136.883C340.773 214.838 297.339 336.41 219.384 350.383C141.429 364.356 58.4735 265.438 44.5005 187.484C30.5275 109.529 82.395 35.0067 160.35 21.0337C238.305 7.06072 312.827 58.9282 326.8 136.883Z" fill="#A87EFF"/>
<ellipse cx="155.54" cy="149.978" rx="8.36495" ry="20.9124" transform="rotate(-10.162 155.54 149.978)" fill="white"/>
<ellipse cx="217.882" cy="138.802" rx="8.36496" ry="20.9124" transform="rotate(-10.162 217.882 138.802)" fill="white"/>
<path d="M276.786 176.198C259.585 200.685 231.218 219.285 196.983 225.421C162.75 231.557 129.69 223.969 105.055 206.983C125.344 232.065 161.487 245.427 199.353 238.639C237.22 231.852 266.472 206.767 276.786 176.198Z" fill="white"/>
<path d="M217.365 348.936C217.888 347.488 219.782 347.148 220.775 348.325L237.665 368.339C238.658 369.515 238.005 371.325 236.49 371.597L210.712 376.218C209.196 376.489 207.955 375.018 208.478 373.57L217.365 348.936Z" fill="#A87EFF"/>
<rect x="204.846" y="350.561" width="28.6798" height="9.55995" rx="4.77997" transform="rotate(-10.162 204.846 350.561)" fill="#8F59FF"/>
</svg>
